<?xml version="1.0" encoding="UTF-8"?>
<svg id="_レイヤー_2" data-name="レイヤー_2" xmlns="http://www.w3.org/2000/svg" viewBox="0 0 281.98 196.72">
  <defs>
    <style>
      .cls-1 {
        fill: #fff;
      }

      .cls-2 {
        fill: none;
        stroke: #fff;
        stroke-linecap: round;
        stroke-linejoin: round;
        stroke-width: 3px;
      }
    </style>
  </defs>
  <g id="_レイヤー_1-2" data-name="レイヤー_1">
    <g>
      <path class="cls-1" d="M280.48,102.69c-16.25-35.41-26.74-53.57-42.99-88.98C180.92,9.64,124.35,5.57,67.79,1.5,45.69,30.26,23.6,59.02,1.5,87.78c13.94,24.36,27.88,48.73,41.82,73.09,11.38.03,39.87.34,72.27.93l-14.17,33.41s21.92-19.25,37.17-32.96c36.59.78,74.19,1.9,95.6,3.34,21.39-29.62,22.94-33.12,46.29-62.91Z"/>
      <path class="cls-2" d="M280.48,102.69c-16.25-35.41-26.74-53.57-42.99-88.98C180.92,9.64,124.35,5.57,67.79,1.5,45.69,30.26,23.6,59.02,1.5,87.78c13.94,24.36,27.88,48.73,41.82,73.09,11.38.03,39.87.34,72.27.93l-14.17,33.41s21.92-19.25,37.17-32.96c36.59.78,74.19,1.9,95.6,3.34,21.39-29.62,22.94-33.12,46.29-62.91Z"/>
    </g>
  </g>
</svg>