<?xml version="1.0" encoding="UTF-8"?>
<svg id="_レイヤー_2" data-name="レイヤー_2" xmlns="http://www.w3.org/2000/svg" viewBox="0 0 297.13 237.9">
  <defs>
    <style>
      .cls-1 {
        fill: #fff;
        stroke: #fff;
        stroke-linecap: round;
        stroke-linejoin: round;
        stroke-width: 3px;
      }
    </style>
  </defs>
  <g id="_レイヤー_1-2" data-name="レイヤー_1">
    <path class="cls-1" d="M207.13,211.48c-13.96,0-59.84.01-73.81.12-43.57.33-44.31-.22-87.88.11-12.9.1-43.67-6.92-43.67-55.4C1.78,51.15-1.92,44.06,17.54,20.85,33.38,1.96,55.81,1.68,141.79,1.68c76.65,0,112.64-3.31,134.78,18.89,19.89,19.95,19.05,47.21,19.05,121.26,0,17.84-.05,50.53-18.62,63.02-13.46,9.06-27.24,2.99-36.36,7.61-6.78,3.43-11.53,10.12-23.8,23.94,4.3-16.62,8.44-26.18-9.71-24.92Z"/>
  </g>
</svg>