<?xml version="1.0" encoding="UTF-8"?>
<svg id="_レイヤー_2" data-name="レイヤー_2" xmlns="http://www.w3.org/2000/svg" viewBox="0 0 238.23 335.82">
  <defs>
    <style>
      .cls-1 {
        fill: #fff;
        stroke: #fff;
        stroke-linecap: round;
        stroke-linejoin: round;
        stroke-width: 3px;
      }
    </style>
  </defs>
  <g id="_レイヤー_1-2" data-name="レイヤー_1">
    <path class="cls-1" d="M1.5,172.94c29.3-.96,30.71-16.31,32.99-57.85,1.38-25.02,2.52-50.71,18.23-73.69C68.43,18.42,105.04-1.27,144.66,1.82c26.94,2.1,49.81,14.36,63.24,29.13,13.43,14.77,18.72,31.85,22.21,48.7,10.91,52.72,6.13,106.15,1.32,159.23-1.7,18.77-6.64,46.29-18.14,63.66-11.5,17.37-26.95,27.6-56.56,30.76-33.65,3.59-69.62-2.15-88.66-19.88-19.05-17.73-27.84-35.72-33.47-60.13-7.01-30.4,7.15-78.7-33.1-80.35Z"/>
  </g>
</svg>