<?xml version="1.0" encoding="UTF-8"?>
<svg id="_レイヤー_2" data-name="レイヤー_2" xmlns="http://www.w3.org/2000/svg" viewBox="0 0 233.22 333.32">
  <defs>
    <style>
      .cls-1 {
        fill: #fff;
        stroke: #fff;
        stroke-linecap: round;
        stroke-linejoin: round;
        stroke-width: 3px;
      }
    </style>
  </defs>
  <g id="_レイヤー_1-2" data-name="レイヤー_1">
    <path class="cls-1" d="M211.81,110.42c-5.46,10.44-2.51,24.44-2.51,56.97,0,27.17,1.07,53.3-.83,80.4-1.9,27.1-13.1,55.44-37.01,70.11-16.04,9.84-35.72,12.38-54.73,13.68-19.92,1.36-44.09-3.16-61.74-12.11-23.62-11.97-32.89-32.76-40.64-57.22C.62,218.91-.31,171.48,3.31,126.32c1.79-22.25,5.5-47.68,14.59-68.24,9.09-20.56,20.8-34.74,41.07-45.8C80.52.53,113.72-1.68,137.21,5.97c23.49,7.65,47.99,28.74,58.51,50.23,4.54,9.28,8.11,28.03,15.12,35.78,6.99,7.72,11.37,6.77,20.88,7.35-1.75.67-14.15.08-19.91,11.09Z"/>
  </g>
</svg>