<?xml version="1.0" encoding="UTF-8"?>
<svg id="_レイヤー_2" data-name="レイヤー_2" xmlns="http://www.w3.org/2000/svg" viewBox="0 0 221.17 285.74">
  <defs>
    <style>
      .cls-1 {
        fill: #fff;
      }

      .cls-2 {
        fill: none;
        stroke: #fff;
        stroke-linecap: round;
        stroke-linejoin: round;
        stroke-width: 3px;
      }
    </style>
  </defs>
  <g id="_レイヤー_1-2" data-name="レイヤー_1">
    <g>
      <path class="cls-1" d="M217.9,51.16c-29.09,26.65-56.74-8.58-38.98-49.66-17.76,41.08-104.57,44.14-122.36,4.31,17.79,39.83-8.52,70.17-37.1,47.04,13.67,12.51,20.22,48.96,20.1,86.59-8.78,2.93-21.21,6.17-38.06,8.8,0,0,20.34-.23,37.64,6.52-1.84,35.83-9.7,69.92-23.23,82.44,29.61-27.41,62.68,5.97,46.62,47.05,16.06-41.08,93.59-41.62,109.29-.75-15.7-40.86,18.23-70.12,47.84-41.25-29.61-28.88-30.86-164.43-1.77-191.08Z"/>
      <path class="cls-2" d="M217.9,51.16c-29.09,26.65-56.74-8.58-38.98-49.66-17.76,41.08-104.57,44.14-122.36,4.31,17.79,39.83-8.52,70.17-37.1,47.04,13.67,12.51,20.22,48.96,20.1,86.59-8.78,2.93-21.21,6.17-38.06,8.8,0,0,20.34-.23,37.64,6.52-1.84,35.83-9.7,69.92-23.23,82.44,29.61-27.41,62.68,5.97,46.62,47.05,16.06-41.08,93.59-41.62,109.29-.75-15.7-40.86,18.23-70.12,47.84-41.25-29.61-28.88-30.86-164.43-1.77-191.08Z"/>
    </g>
  </g>
</svg>