<?xml version="1.0" encoding="UTF-8"?>
<svg id="_レイヤー_2" data-name="レイヤー_2" xmlns="http://www.w3.org/2000/svg" viewBox="0 0 257.43 342.15">
  <defs>
    <style>
      .cls-1, .cls-2 {
        fill: #fff;
      }

      .cls-1, .cls-3 {
        stroke: #fff;
        stroke-linecap: round;
        stroke-linejoin: round;
        stroke-width: 3px;
      }

      .cls-3 {
        fill: none;
      }
    </style>
  </defs>
  <g id="_レイヤー_1-2" data-name="レイヤー_1">
    <g>
      <path class="cls-1" d="M26.6,315.14c-2.41-7.28,1.19-16.25,7.76-19.32,6.57-3.06,15.08.26,18.32,7.16,3.24,6.89.7,16.29-5.46,20.22-6.16,3.93-17.01,2.84-20.63-8.06Z"/>
      <path class="cls-1" d="M18.91,331.9c-.2,6.12-7.51,10.66-12.81,7.94-5.3-2.72-6.26-11.5-1.68-15.37,4.58-3.88,14.77-1.35,14.49,7.43Z"/>
      <g>
        <path class="cls-2" d="M253.53,120.12c-2.22-38.37-24.17-112.44-102.83-118.38C104.67-1.73,62.77,31.78,51.68,69.42c-13.93,47.27-13.56,141.13,7.12,192.38-3.41,3.79-5.47,8.5-5.36,13.34.25,10.77,11.46,23.15,28.43,20.5.34-.05.68-.12,1.02-.18,29.03,23.16,74.11,25.51,106.54,12.88,79.9-31.13,66.69-143.59,64.1-188.22Z"/>
        <path class="cls-3" d="M253.53,120.12c-2.22-38.37-24.17-112.44-102.83-118.38C104.67-1.73,62.77,31.78,51.68,69.42c-13.93,47.27-13.56,141.13,7.12,192.38-3.41,3.79-5.47,8.5-5.36,13.34.25,10.77,11.46,23.15,28.43,20.5.34-.05.68-.12,1.02-.18,29.03,23.16,74.11,25.51,106.54,12.88,79.9-31.13,66.69-143.59,64.1-188.22Z"/>
      </g>
    </g>
  </g>
</svg>