<?xml version="1.0" encoding="UTF-8"?>
<svg id="_レイヤー_2" data-name="レイヤー_2" xmlns="http://www.w3.org/2000/svg" viewBox="0 0 292.72 278.64">
  <defs>
    <style>
      .cls-1, .cls-2 {
        fill: #fff;
      }

      .cls-1, .cls-3 {
        stroke: #fff;
        stroke-linecap: round;
        stroke-linejoin: round;
        stroke-width: 3px;
      }

      .cls-3 {
        fill: none;
      }
    </style>
  </defs>
  <g id="_レイヤー_1-2" data-name="レイヤー_1">
    <g>
      <g>
        <path class="cls-2" d="M260.88,17.48C233.69.38,241.24,1.52,151.16,1.52,40.61,1.52,33.62,9.73,20.69,21.98,9.53,32.55,1.5,48.74,1.5,95.96s3.4,71.35,17.5,91.66c14.21,20.47,42.35,24.47,78.73,24.69,2.34,9.39,12.55,18.54,27.14,16.26,9.48-1.48,17.15-8.74,18.98-16.96,48.11-.75,103.59,2.58,125.23-17.53,20.88-19.41,22.12-40.7,22.12-87.9,0-31.16,1.56-68.65-30.32-88.71Z"/>
        <path class="cls-3" d="M260.88,17.48C233.69.38,241.24,1.52,151.16,1.52,40.61,1.52,33.62,9.73,20.69,21.98,9.53,32.55,1.5,48.74,1.5,95.96s3.4,71.35,17.5,91.66c14.21,20.47,42.35,24.47,78.73,24.69,2.34,9.39,12.55,18.54,27.14,16.26,9.48-1.48,17.15-8.74,18.98-16.96,48.11-.75,103.59,2.58,125.23-17.53,20.88-19.41,22.12-40.7,22.12-87.9,0-31.16,1.56-68.65-30.32-88.71Z"/>
      </g>
      <path class="cls-1" d="M81.97,250.36c-2.27-6.22,1.12-13.9,7.29-16.52,6.17-2.62,14.17.23,17.21,6.12,3.04,5.89.66,13.93-5.12,17.29-5.79,3.36-15.98,2.43-19.37-6.89Z"/>
      <path class="cls-1" d="M79.61,268.05c-.2,6.36-7.72,11.08-13.17,8.25s-6.43-11.95-1.73-15.97c4.7-4.03,15.18-1.4,14.89,7.72Z"/>
    </g>
  </g>
</svg>